<svg xmlns="http://www.w3.org/2000/svg" xmlns:xlink="http://www.w3.org/1999/xlink" version="1.1" x="0px" y="0px" viewBox="0 0 2244 1090" style="enable-background:new 0 0 2244 1090;" xml:space="preserve">
<style type="text/css">
	.st0{fill:#C2C1C3;}
	.st1{fill:#FFFFFF;}
	.st2{fill:#D34F41;}
	.st3{fill:none;}
</style>
<title>Hub-Group-Logo_Reverse</title>
<path class="st0" d="M930.1,272.2L472.6,8.1c-0.2-0.1-0.5-0.2-0.7-0.4c-2.7-1.3-5.9-1.3-8.6,0c-0.2,0.1-0.5,0.2-0.7,0.4L5,272.2  c-3.1,1.8-5,5.1-5,8.7v528.3c0,3.6,1.9,6.9,5,8.7l458.3,264.6c2.7,1.3,5.9,1.3,8.6,0l458.3-264.5c3.1-1.8,5-5.1,5-8.7V280.9  C935.1,277.4,933.2,274,930.1,272.2z M868.1,770.6c0,3.6-1.9,6.9-5,8.7l-390.5,225.5c-3.1,1.8-6.9,1.8-10,0L72,779.3  c-3.1-1.8-5-5.1-5-8.7V319.7c0-3.6,1.9-6.9,5-8.7L467.6,82.6l395.6,228.3c3.1,1.8,5,5.1,5,8.7V770.6z"/>
<path class="st1" d="M863.1,310.9L467.6,82.6L72,310.9c-3.1,1.8-5,5.1-5,8.7v451c0,3.6,1.9,6.9,5,8.7l390.5,225.5  c3.1,1.8,6.9,1.8,10,0l390.5-225.5c3.1-1.8,5-5.1,5-8.7V319.7C868.1,316.1,866.2,312.8,863.1,310.9z"/>
<rect x="223.1" y="287.3" class="st2" width="73.4" height="244.3"/>
<rect x="636.6" y="287.3" class="st2" width="73.4" height="244.3"/>
<rect x="636.7" y="560.1" class="st2" width="73.4" height="244.3"/>
<rect x="223.2" y="560.1" class="st2" width="73.4" height="244.3"/>
<polygon class="st2" points="398.9,804.4 398.9,633.5 535.6,633.5 535.6,804.4 609,804.4 609,560.1 575.5,560.1 535.6,560.1   398.9,560.1 331.2,560.1 325.5,560.1 325.5,804.4 "/>
<polygon class="st2" points="535.6,287.3 535.6,458.2 398.9,458.2 398.9,287.3 325.5,287.3 325.5,531.6 359,531.6 398.9,531.6   535.6,531.6 603.3,531.6 609,531.6 609,287.3 "/>
<path class="st1" d="M1338.1,810.9c-9.9,0-19.3,0.1-28.8-0.2c-1.3,0-3.2-1.9-3.8-3.3c-3.5-9.7-6.8-19.5-9.8-28.3  c-8.3,7-16.1,14.8-25.2,20.9c-14.6,9.9-31.2,14.6-49,15.9c-17.3,1.4-34.6-0.7-51.1-6.2c-26.7-9.1-46.5-26.6-60.5-51  c-11.1-19.2-18.1-40.6-20.4-62.7c-1.7-15.9-3.3-32-2.8-48c0.9-26.1,6-51.5,18.7-74.7c18.8-34.2,46.6-56.7,85.2-64.4  c18.7-3.7,37.7-2.9,56.7,0.5c17.1,3.1,32.9,8.8,47,18.9c18.2,13,30,30.8,36.8,51.9c2.8,8.5,4.1,17.5,6.2,26.2c0.7,3-0.7,4-3.6,4.2  c-17.2,1.6-34.5,3.2-51.7,5c-10.3,1-10.2,1.1-13-8.7c-3.8-13.1-9.1-25.3-20.5-33.9c-13.1-9.8-27.8-11.7-43.2-8  c-18.7,4.5-29.1,18.2-36,35c-5.6,13.5-8.6,28-8.9,42.6c-0.4,12.5-1,25.2,0.1,37.6c1.8,19.8,6.3,39,17.6,56.1  c20,30.5,66.7,29.3,85.3,0.6c5.4-8.4,8-20.5,7.4-30.3h-55.2v-53.8h122.2L1338.1,810.9z"/>
<path class="st1" d="M1568.2,550.8h-66.4V429.1h-94.6c0.1,1.9,0.2,3.7,0.2,5.5c0,36.8-0.1,73.7,0.1,110.5c0,4.6-1.2,6-5.9,5.9  c-18.7-0.3-37.3-0.3-56,0c-5.1,0.1-6-1.7-6-6.3c0.1-63.7,0.2-127.3,0.1-191v-98.4h67.5v116.3h94.2V255.3h66.9L1568.2,550.8z"/>
<path class="st1" d="M2039.9,591.1h58.4v23c3.2-3.8,5.6-6.5,7.9-9.5c11.5-15,26.9-21.9,45.5-22.8c19.5-1,37.3,3.7,52.8,15.7  c16.7,12.9,26.8,30.3,33.1,50.3c7.1,22.6,7,45.8,5.6,68.8c-1.4,22.5-6.4,44.4-19.4,63.7c-13.4,19.8-31.3,33.6-55.2,37.2  c-24.1,3.7-45.8-1.8-61.9-22c-0.2-0.3-0.5-0.5-0.7-0.7l-2.3-2.5v94.2h-63.8L2039.9,591.1z M2102.5,700.3  c-0.4,15.1-0.5,31.8,6.2,47.5c4.6,10.7,12.2,17.7,24.2,19.1c13.7,1.6,23.7-3.5,29.9-16.1c5.3-10.8,7.1-22.3,8-34.2  c1.5-21,2-41.9-3.3-62.5c-1.8-7-4.9-13.7-10.9-18.2c-15.2-11.4-41.2-7.6-49,16.3C2102.4,667.4,2102.3,683,2102.5,700.3L2102.5,700.3  z"/>
<path class="st1" d="M1914,522.2c-4.7,9.4-9.2,17.8-13.2,26.3c-1.3,2.7-2.8,3.5-5.6,3.4c-8.6-0.2-17.3,0-26.3,0V255.2h63.3v99.6  l0.9,0.4c1.2-1.7,2.5-3.3,3.7-5.1c11.3-17,27.6-25,47.6-25.1c32.6-0.3,55.4,16.2,71,43.7c8.5,15,12.4,31.3,13.1,48.5  c0.5,12.4,1.4,24.9,0.9,37.3c-1,24.1-5.9,47.3-19.9,67.6c-13,18.9-29.9,31.6-53.6,34c-13.6,1.4-27.2,1.5-40.4-2  c-15.7-4.1-27.1-15.1-37.7-26.8c-0.6-0.8-1.2-1.6-1.7-2.4C1915.6,524.2,1915.1,523.6,1914,522.2z M2004.1,442.1  c-0.5-7.8-0.9-15.5-1.6-23.3c-1.1-11.9-4.8-23.4-11-33.7c-9.6-16.3-37-19.7-48.2-0.3c-7.7,13.4-9.7,27.8-10.6,42.5  c-0.7,11.2,0.3,22.5,0.8,33.8c0.5,11.8,3.7,23.4,9.5,33.8c7.6,13.8,22.7,18.4,36.2,13.8c10-3.4,14.9-12,18.4-21.4  C2002.9,472.8,2004.1,457.6,2004.1,442.1L2004.1,442.1z"/>
<path class="st1" d="M1535.1,699.3c0.6-23.8,4.2-46.9,16.3-67.8c14.4-25.1,35.8-41.1,64.3-46.4c11.7-2.2,23.5-3.2,35.4-2.9  c29.1,1,54.8,10.8,74.4,33.3c12.7,14.4,21,32.1,23.9,51c2.3,13.9,3.3,27.9,3,41.9c-0.8,26.4-7.5,51.3-24.4,72.4  c-13.8,17.1-31.7,28.4-53.2,32.9c-30,6.3-59.4,5-86.9-9.9c-17.7-9.6-30.7-24-39.4-42.3c-6.9-14.4-10.9-29.9-11.8-45.8  C1536.2,710.2,1535.6,704.8,1535.1,699.3z M1681,700.3c-0.5-6.8-0.8-13.5-1.4-20.3c-1.2-13.5-4-26.6-11.5-38.1  c-5.6-8.5-13-14.1-23.9-14.2c-11.2,0-19.2,5-25,14c-8.5,13.3-10.5,28.5-11.4,43.7c-0.6,11.5,0.1,23.2,0.9,34.8  c0.9,12.3,3.8,24.2,9.8,35.2c7.7,13.8,21.2,20.4,36.6,14.3c9.8-3.8,14.9-12.1,18.4-21.4C1679.3,732.9,1681.1,716.8,1681,700.3  L1681,700.3z"/>
<path class="st1" d="M1789.6,591.1h64v5.9c0,39.5-0.1,79,0.1,118.5c0,8.1,1,16.1,1.9,24.2c2.8,26.8,25.9,29.3,42.7,18.2  c10.5-6.9,14.2-17.8,16.2-29.3c1.1-6.6,1.1-13.5,1.1-20.3c0.1-37,0-74,0-111v-5.8h62.7v219.2h-58.5v-29.4c-5.2,6-9.5,11.5-14.5,16.4  c-12.2,12.1-26.8,18.4-44.3,18.5c-14,0-27.5-1.3-40.5-7.1c-15-6.6-23.6-18.4-26.7-33.8c-2.4-11.6-3.8-23.4-4-35.2  c-0.4-47.5-0.2-95-0.2-142.5L1789.6,591.1z"/>
<path class="st1" d="M1815.4,330.9v219.5h-58.7v-33.3c-4.3,5.8-7.9,10.9-11.8,15.8c-10,12.9-23.4,19.6-39.4,21.9  c-14.9,2.3-30.1,0.7-44.2-4.6c-15.1-5.8-24-17.3-29.7-31.8c-4.5-11.4-6-23.6-6-35.8c-0.2-48.7-0.1-97.3-0.1-146v-5.6h62v5.8  c0,44.3-0.2,88.6,0.1,133c0.1,9.6,1.9,19.1,8.3,27.3c5.8,7.5,13.5,9.3,21.8,8.5c21.7-1.9,34-24.9,33.9-40.6  c-0.2-42.7,0.1-85.3-0.1-128c0-5.1,1.5-6.4,6.5-6.4c17.2,0.3,34.3,0.1,51.5,0.1L1815.4,330.9z"/>
<path class="st1" d="M1452.5,621.2c14.7-32.5,31-40.3,60.7-37.9v64.8c-7,1.2-14,1.7-20.8,3.5c-18.8,5.1-29.6,18.1-33.7,36.7  c-1.3,6.1-2,12.3-2,18.6c-0.2,32.7-0.1,65.3-0.1,98v5.7h-64v-5.2c0-69.5,0-139-0.1-208.5c0-4.5,1-6.1,5.8-6c16.3,0.3,32.7,0.2,49,0  c4.2,0,5.5,1.3,5.3,5.5C1452.3,604.2,1452.5,612,1452.5,621.2z"/>
<path class="st3" d="M863.1,310.9L471.8,85.1c-2.7-1.3-5.9-1.3-8.6,0L72,310.9c-3.1,1.8-5,5.1-5,8.7v450.9c0,3.6,1.9,6.9,5,8.7  l391.3,225.9c2.7,1.3,5.9,1.3,8.6,0l391.3-225.9c3.1-1.8,5-5.1,5-8.7V319.7C868.1,316.1,866.2,312.7,863.1,310.9z"/>
<path class="st0" d="M0,809.2L0,809.2c0,3.6,1.9,7,5,8.7l457.5,264.2c0.2,0.1,0.5,0.2,0.7,0.4L5,817.9C1.9,816.2,0,812.8,0,809.2z"/>
<path class="st0" d="M72,310.9L463.3,85c-0.2,0.1-0.5,0.2-0.7,0.4L72,310.9c-3.1,1.8-5,5.1-5,8.7v0.1C67,316.1,68.9,312.7,72,310.9z  "/>
<path class="st0" d="M930.1,817.9l-458.3,264.6c0.2-0.1,0.5-0.2,0.7-0.4L930.1,817.9c3.1-1.8,5-5.1,5-8.7v-0.1  C935.1,812.8,933.2,816.1,930.1,817.9z"/>
<path class="st0" d="M67,770.6L67,770.6c0,3.6,1.9,7,5,8.7l390.5,225.5c0.2,0.1,0.5,0.2,0.7,0.4L72,779.2  C68.9,777.4,67,774.1,67,770.6z"/>
<path class="st0" d="M863.1,779.2l-391.3,225.9c0.2-0.1,0.5-0.2,0.7-0.4L863.1,779.2c3.1-1.7,5-5,5-8.6v-0.1  C868.1,774.1,866.2,777.4,863.1,779.2z"/>
<path class="st0" d="M471.8,85.1l-4.3-2.5l-4.3,2.5C466,83.8,469.1,83.8,471.8,85.1z"/>
</svg>
